<?xml version="1.0" encoding="UTF-8"?><svg id="Layer_1" xmlns="http://www.w3.org/2000/svg" viewBox="0 0 1547.01 870.74"><defs><style>.cls-1{fill:#1a8a2e;fill-rule:evenodd;stroke:#4cda56;stroke-miterlimit:10;stroke-width:3px;}</style></defs><g id="g22"><path id="path2" class="cls-1" d="M703.63,220.03c-6.07,.2-12.23,1.06-18.16,2.55-17.85,4.46-34.03,14.64-45.97,28.92-11.45,13.69-18.47,30.55-20.04,48.1-.27,3-.34,4.64-.34,8.13,0,3,.02,3.9,.18,6.17,.76,11.24,3.7,22.21,8.64,32.29,3.83,7.81,8.56,14.7,14.52,21.17,.98,1.06,3.48,3.57,4.51,4.53,9.15,8.5,19.59,14.8,31.26,18.85,5.05,1.75,10.61,3.09,16.01,3.86,2.62,.38,4.52,.56,8.29,.8,1.16,.07,142.01,.11,144.33,.04,16.5-.51,32.09-5.51,45.79-14.67,13.65-9.12,24.52-21.93,31.3-36.87,4.14-9.13,6.67-18.95,7.48-29.04,.33-4.11,.36-8.99,.07-13.27-1.23-18.35-8.29-35.87-20.18-50.09-9.41-11.26-21.38-19.95-34.9-25.35-8.71-3.48-17.8-5.49-27.3-6.03-2.06-.12-4.03-.13-16.92-.13h-13.57v6.75h8.23c7.81,0,8.23,0,8.2,.08-.01,.06-46.86,117.77-48.32,121.42l-.35,.88-19.96-61.11c-10.97-33.61-19.97-61.15-19.98-61.19-.03-.07,.46-.08,8.76-.08h8.78v-6.75h-29.65c-16.31,0-30.13,.03-30.71,.05Zm39.79,88.12c14.97,44.77,27.23,81.44,27.25,81.48,.02,.08-1.43,.08-32.45,.06-24.14-.01-32.67-.03-33.25-.07-4.23-.28-6.59-.54-9.74-1.06-19.37-3.2-37.1-13.05-49.95-27.77-11.47-13.13-18.34-29.34-19.65-46.35-.18-2.35-.21-3.07-.21-6.23,0-3.65,.08-5.41,.4-8.44,2.08-19.72,11.63-38.09,26.84-51.61,13.85-12.32,31.41-19.77,49.94-21.19,2.76-.21,3.67-.24,8.94-.23h4.67s27.22,81.41,27.22,81.41Zm101.23-81.38c6.14,.24,11.82,1.04,17.65,2.49,18.73,4.65,35.4,15.61,46.97,30.89,4.34,5.74,7.92,12.05,10.57,18.67,3.07,7.68,4.91,15.73,5.46,24,.23,3.48,.2,8.47-.07,11.75-.58,6.98-1.93,13.39-4.18,19.79-4.91,14-13.7,26.47-25.44,36.1-6.12,5.03-13.01,9.21-20.35,12.36-7.55,3.24-15.59,5.38-23.8,6.33-1.66,.19-2.9,.29-5.62,.48-.58,.04-9.56,.05-35.24,.07-18.95,0-34.46,0-34.46-.01,0-.01,14.34-36.66,31.86-81.43,17.52-44.78,31.87-81.44,31.88-81.47,.03-.07,3.05-.08,4.77,0Z"/><path id="path4" class="cls-1" d="M475.77,518.59c-.07,.24-.24,.8-.38,1.24-2.94,9.62-6.21,21.1-14.19,49.7-9.59,34.39-13.95,49.41-18.35,63.13-1.36,4.26-3.6,10.87-3.86,11.44-.05,.11-.23,.34-.4,.5-.5,.49-1.33,.84-2.46,1.04-1.1,.19-1.52,.21-4.73,.23-1.71,0-3.17,.03-3.25,.04-.13,.02-.14,.04-.13,.15,.01,.07,.07,.61,.13,1.22s.13,1.17,.14,1.26l.03,.17h15.28c8.4,0,15.28,0,15.28-.01,.04-.21,.3-2.74,.28-2.76-.02-.03-2.95-.02-7.25,0-3.24,.02-3.54,0-4.5-.25-.76-.2-1.01-.38-1.41-.98-.78-1.19-1.03-2.02-1.03-3.42,0-1.24,.11-1.88,.85-5.09,2.49-10.8,5.04-20.29,7.5-27.9l.42-1.3h.93c.51,.02,7.75,.08,16.08,.16,8.33,.08,15.15,.14,15.15,.15,0,0,2.52,8.67,5.58,19.26,3.06,10.59,5.58,19.28,5.59,19.31,.02,.04-1.46,.06-7.31,.06h-7.33v2.77h43.43v-2.77h-11.56l-.41-1.44c-.72-2.51-36.15-126.18-36.18-126.26-.02-.07-.11-.08-.91-.08h-.89l-.13,.43Zm1.98,58.42c4.16,15.15,7.59,27.62,7.6,27.69l.03,.13h-30.85l.03-.12c.04-.16,15.33-55.06,15.43-55.37l.07-.25,.06,.18c.03,.1,3.47,12.58,7.64,27.73Z"/><path id="path6" class="cls-1" d="M1161.36,518.21c-.26,.02-.69,.07-.96,.11-.27,.04-.82,.1-1.23,.14-1.91,.18-3.32,.46-5.41,1.07-9.11,2.65-17.55,9.06-25.29,19.17-.92,1.2-1.63,2.18-2.35,3.28-6.31,9.49-9.91,21.34-10.78,35.5-.26,4.32-.28,9.58-.04,13.96,.71,12.97,3.67,23.73,8.9,32.29,.46,.75,1.55,2.43,2.19,3.36,5.31,7.72,10.91,13.52,16.96,17.54,1.98,1.32,2.76,1.75,4.77,2.64,2.51,1.12,4.29,1.74,6.9,2.41,3.15,.82,5.26,1.09,8.32,1.09,1.96,0,2.98-.07,4.74-.32,1.87-.26,2.92-.5,4.31-.98,.43-.15,1.22-.42,1.74-.6s1.27-.44,1.65-.58c8.5-3.16,16.45-9.8,23.76-19.84,4.15-5.71,7.23-12.39,9.24-20.04,1.58-6.02,2.49-12.66,2.75-20.04,.06-1.68,.06-6.09,0-7.69-.52-14.42-3.82-26.62-9.98-36.97-3.86-6.49-9.48-12.93-14.94-17.16-2.34-1.81-4.52-3.2-6.92-4.42-4.46-2.26-8.86-3.49-13.87-3.89-.8-.06-3.87-.09-4.47-.04Zm3.98,2.35c1.79,.18,3.47,.52,4.87,.97,1.97,.63,4.03,1.73,5.88,3.13,4.23,3.18,8.14,8.89,11.73,17.08,2.63,6.01,4.34,13.92,5.26,24.33,.88,9.96,.95,23.8,.16,34.36-.84,11.27-2.6,19.95-5.37,26.43-.42,.99-1.48,3.11-2.2,4.42-3.03,5.5-6.18,9.53-9.57,12.24-3.11,2.49-6.59,3.88-10.85,4.32-.85,.09-3.68,.08-4.54-.02-2.23-.25-4.33-.84-6.49-1.8-4.96-2.23-9.5-7.11-13.78-14.82-1.42-2.55-2.3-4.53-3.2-7.22-2.52-7.43-4.02-17.5-4.51-30.25-.12-3.19-.15-5.11-.15-9.61,0-7.06,.17-12,.6-17.47,.99-12.62,3.15-21.91,6.59-28.44,3.92-7.41,8.17-12.43,12.75-15.07,1.33-.77,2.47-1.23,4.26-1.73,1.85-.52,3.32-.8,4.81-.92,.74-.06,2.94-.02,3.75,.07Z"/><path id="path8" class="cls-1" d="M335.43,520.14c0,.06,.06,.67,.13,1.38,.07,.7,.13,1.3,.13,1.32,0,.04,1.25,.06,6.08,.06,5.75,0,6.08,0,6.11,.08,.02,.04,8.55,28.77,18.95,63.84l18.93,63.76h1.59l.15-.47c.22-.7,5.22-16.97,8.35-27.14,10.32-33.57,16.95-54.28,23.52-73.52,3.2-9.35,7.32-20.93,7.75-21.71,.78-1.46,2.39-2.61,4.79-3.42,2.04-.69,4.79-1.15,7.75-1.32,.5-.03,.96-.06,1.02-.07l.1-.02v-2.86h-16.62c-15.8,0-16.62,0-16.62,.08,0,.3,.38,3.64,.42,3.66,.02,.02,1.43,.05,3.15,.06,3.28,.03,3.78,.06,4.87,.27,1.31,.25,2.19,.74,3.14,1.72,1.34,1.4,2.03,3.26,1.95,5.26-.01,.34-.06,.8-.1,1.03-.19,1.1-2.89,10.51-5.54,19.37-2.88,9.59-5.27,17.35-12.06,39.09-5.29,16.92-7.01,22.49-8.92,28.82-.44,1.46-.82,2.69-.84,2.74-.02,.06-4.56-16.25-13.77-49.53-7.55-27.28-13.73-49.63-13.74-49.65,0-.03,2.43-.05,7.2-.06,6.82,0,7.2-.01,7.2-.09,0-.04-.06-.65-.13-1.34-.08-.7-.13-1.31-.13-1.35,0-.08-.75-.08-22.41-.08h-22.41v.1Z"/><path id="path10" class="cls-1" d="M532.78,521.91v1.88h15.15v122.42h-15.32v2.5h90.34v-.8c0-.43,.06-9.74,.14-20.69,.08-10.94,.13-19.9,.13-19.91-.02-.02-2.09,.26-2.11,.29,0,0-.04,1.32-.07,2.92-.05,2.98-.09,4-.21,5.94-.75,12.08-3.52,19.33-9.09,23.82-3.95,3.18-9.55,5.01-17.11,5.58-2.06,.15-2.94,.18-6.03,.16-5.81-.04-12.3-.01-15.59,.06-1.76,.04-4.64,.09-6.4,.1l-3.21,.03v-122.43h15.32v-3.75h-45.93v1.88Z"/><path id="path12" class="cls-1" d="M733.52,521.63v1.6l2.45-.03c1.34-.01,4.74-.06,7.55-.1,2.81-.04,5.12-.07,5.13-.05,.08,.08-.21,60.11-.43,87.73-.17,21.57-.2,23.72-.36,26.2-.29,4.57-1.06,6.61-2.9,7.68-1.32,.77-3.18,1.09-7.1,1.23-1.07,.04-4.68,.13-5.01,.13-.08,0-.08,.06-.08,1.34v1.34h33.51v-3.26h-.38c-.52,0-1.68,.07-3.69,.22-3.37,.25-4.22,.29-5.29,.22-2.16-.13-3.46-.62-4.49-1.68-1.23-1.26-1.88-3.2-2.1-6.29-.04-.53-.04-3.88-.02-12.89,.02-11.4,.04-14.92,.16-33.84,.15-23.34,.41-55.8,.48-60.82l.03-1.89,36.44,61.12c20.04,33.62,36.46,61.13,36.49,61.14,.05,.02,1.55-.07,2.43-.15l.3-.03v-7.89c0-4.34-.02-11.83-.04-16.65-.19-38.28-.19-62.64,0-77.25,.1-7.72,.29-15.71,.4-17.67,.31-5.06,1.55-7.07,4.78-7.77,1.17-.25,2.1-.31,5.94-.37,1.76-.03,3.3-.06,3.43-.07l.23-.02v-1.32c0-.72,0-1.32,0-1.32-.02,0-31.65-.21-31.65-.21,0,0-.06,.64-.13,1.42s-.13,1.52-.15,1.67l-.03,.26,1.34-.03c3.32-.07,6.53-.08,7.37-.03,3.09,.2,4.48,.69,5.02,1.8,.44,.9,.75,2.23,.92,3.94,.13,1.23,.17,8.54,.14,27.05-.01,9.47-.04,22.35-.07,28.62-.03,6.26-.05,16.08-.06,21.81,0,5.73-.02,10.41-.04,10.39s-13.06-21.74-28.99-48.29c-15.92-26.54-28.99-48.29-29.02-48.34-.06-.08-.31-.08-12.46-.16-6.81-.04-14.11-.08-16.22-.1l-3.83-.03v1.59Z"/><path id="path14" class="cls-1" d="M847.89,520.63c0,.33-.04,8.78-.09,18.79-.05,10.01-.08,18.21-.07,18.22s.49-.04,1.06-.12c.57-.08,1.05-.14,1.07-.14s.04-.16,.05-.35c.01-.19,.08-.97,.14-1.73,.06-.76,.22-2.94,.36-4.85,.37-5.16,.55-7.12,.8-9.06,.66-4.87,1.76-8.02,3.74-10.67,1.49-1.99,3.35-3.34,6.18-4.48,3.8-1.52,8.76-2.36,15.99-2.7,1.38-.06,9.06-.08,9.12-.02,.03,.03-.15,84.81-.24,113.43l-.03,9.06h-15.53v2.77h46.69v-2.77h-.17c-.89,0-15.03-.31-15.04-.32-.01-.01,.26-116.75,.29-122.11v-.39h.75c1.43,0,4.22,.11,6.04,.22,9.04,.59,16.67,2.23,20.95,4.5,2.1,1.11,3.4,2.26,4.57,4.01,.92,1.39,1.64,3.1,2.15,5.15,.75,2.99,1.07,5.68,1.72,14.36,.14,1.95,.32,4.22,.38,5.04l.13,1.49h2.49l-.03-1.53c-.03-1.44-.47-35.45-.47-36.1v-.3h-93.02v.59Z"/><path id="path16" class="cls-1" d="M950.03,521.91v1.88h13.31v121.93h-7.11s-7.12,.02-7.12,.02v1.53s-.02,1.53-.02,1.53h42.85v-3.08h-13.05v-121.93h13.67v-3.75h-42.53v1.88Z"/><path id="path18" class="cls-1" d="M998.88,520.16s-.02,.71-.02,1.54v1.52l5.89-.03c3.23-.02,6.64-.04,7.57-.06l1.68-.03v3.28c0,13.65-.28,64.72-.49,90.36-.03,2.97-.07,7.94-.09,11.04-.05,6.81-.11,8.65-.29,10.61-.41,4.24-1.44,6-4.04,6.81-1.43,.45-3.25,.63-7.39,.74-.98,.02-2.19,.06-2.69,.07l-.91,.03v2.67h33.51v-3.26h-.38c-.52,0-1.68,.07-3.69,.22-3.37,.25-4.22,.29-5.29,.22-1.76-.11-3-.47-3.92-1.17-1.6-1.2-2.43-3.33-2.68-6.88-.06-.87-.03-17.97,.05-31.65,.17-28.61,.38-57.24,.54-72.94,.03-2.62,.05-4.76,.05-4.76s16.41,27.49,36.44,61.11c20.04,33.62,36.46,61.13,36.49,61.14,.05,.02,1.55-.07,2.44-.15l.3-.03v-8.2c0-4.51-.03-13.87-.07-20.8-.09-17.51-.13-53.95-.07-62.59,.09-12.25,.26-22.24,.45-26.74,.24-5.49,1.29-7.76,4-8.65,1.32-.43,3.1-.56,7.89-.56h2.53v-2.67l-2.02-.03c-1.11-.01-7.37-.06-13.91-.09-6.54-.04-12.75-.07-13.81-.08h-1.92s-.15,1.61-.15,1.61c-.08,.89-.14,1.64-.13,1.65,.01,0,1.44,0,3.16-.03,4.21-.07,6.15,0,7.7,.29,1.63,.3,2.44,.75,2.83,1.55,.51,1.06,.84,2.69,1,4.95,.08,1.14,.08,33.37,0,54.17-.03,8.57-.06,19.43-.07,24.11,0,4.69-.02,8.51-.03,8.49s-13.06-21.73-28.98-48.24c-15.93-26.51-28.99-48.24-29.02-48.29-.05-.08-.72-.08-13.7-.16-7.51-.04-14.8-.09-16.2-.1s-2.57,0-2.58,0Z"/><path id="path20" class="cls-1" d="M633.53,522.32v1.88h13.22v121.93h-13.22v.09c0,.05,.06,.61,.13,1.24,.08,.63,.13,1.17,.13,1.2,0,.05,6.59,.06,44.19,.06h44.19v-1.13c0-.62,.04-8.68,.09-17.92,.05-9.23,.08-16.8,.08-16.81-.02-.02-2.9-.21-2.92-.19,0,0-.04,1.04-.06,2.29-.06,2.9-.13,4.33-.32,6.46-.61,6.96-2.06,11.94-4.4,15.11-.46,.62-1.46,1.67-2.19,2.31-4.6,3.97-11.69,6.36-21.62,7.29-1.88,.17-3.91,.3-6.52,.41-1.77,.08-10.48,.07-13.4,0-1.15-.03-3.47-.07-5.15-.08-1.68-.01-3.05-.03-3.05-.03,0-.03-.3-60.68-.29-60.69,0,0,2.48-.08,5.5-.17,3.68-.11,5.82-.15,6.47-.13,4.86,.13,9.9,1.85,12.43,4.24,.69,.66,1.27,1.49,1.94,2.78,.88,1.69,1.4,3.43,1.65,5.49,.17,1.44,.2,2.08,.19,5.48,0,2.38,0,3.4,.05,3.69l.05,.4h1.58s1.57,.02,1.57,.02v-1.64c0-.91-.06-11.1-.13-22.67-.07-11.56-.13-21.59-.13-22.29v-1.26h-2.27l-.03,.28c-.01,.16-.04,.74-.07,1.31-.36,7.62-.96,11.56-2.16,14.25-.62,1.4-1.42,2.39-2.69,3.36-2.34,1.78-6.19,3.27-9.69,3.74-.82,.11-3.02,.25-5.45,.34-1.39,.05-8.77,.2-8.8,.17-.02-.03,.28-58.57,.3-58.6,.02-.02,25.81,.3,26.19,.33,.13,0,.59,.04,1.05,.06,6.08,.36,11.2,1.87,14.75,4.36,1.51,1.06,2.68,2.2,3.84,3.75,1.17,1.56,2.09,3,2.77,4.35,1.54,3.06,2.2,5.88,3.11,13.25,.12,.93,.21,1.7,.21,1.71,.01,.02,2.04,.29,2.06,.28,.01-.01-2.14-32.07-2.16-32.15,0,0-18.23,0-40.51,0h-40.5v1.88Z"/></g></svg>